<svg xmlns="http://www.w3.org/2000/svg" viewBox="0 0 42.86 39.79"><defs><style>.cls-1{fill:#0079d4;}</style></defs><title>Datový zdroj 13</title><g id="Vrstva_2" data-name="Vrstva 2"><g id="Vrstva_1-2" data-name="Vrstva 1"><path class="cls-1" d="M21.43,29.09a5.95,5.95,0,1,1,5.95-5.95A6,6,0,0,1,21.43,29.09Zm0-9.9a3.95,3.95,0,1,0,3.95,3.95A4,4,0,0,0,21.43,19.19Z"/><path class="cls-1" d="M21.6,34.64a13.64,13.64,0,0,1-8.92-3.55L14,29.57a11.67,11.67,0,0,0,7.62,3.06,11.66,11.66,0,0,0,7.61-3.06l1.31,1.51A13.63,13.63,0,0,1,21.6,34.64Z"/><path class="cls-1" d="M36.91,20.25H36.1a6,6,0,0,1-6-6V0H32a10.91,10.91,0,0,1,10.9,10.9v3.4A6,6,0,0,1,36.91,20.25ZM32.15,2V14.3a4,4,0,0,0,4,4h.81a4,4,0,0,0,4-4V10.9A8.91,8.91,0,0,0,32.15,2Z"/><path class="cls-1" d="M6.76,20.25H6a6,6,0,0,1-6-6V10.9A10.91,10.91,0,0,1,10.9,0h1.81V14.3A6,6,0,0,1,6.76,20.25ZM10.72,2A8.91,8.91,0,0,0,2,10.9v3.4a4,4,0,0,0,4,4h.81a4,4,0,0,0,4-4Z"/><circle class="cls-1" cx="17.21" cy="11.86" r="1.82"/><circle class="cls-1" cx="25.3" cy="11.86" r="1.82"/><path class="cls-1" d="M30.73,21.24H26a4.93,4.93,0,0,1,.38,1.9s0,.06,0,.1h4.36a3.22,3.22,0,0,1,3.21,3.21A11.35,11.35,0,0,1,22.61,37.79h-2A11.35,11.35,0,0,1,9.24,26.45a3.22,3.22,0,0,1,3.21-3.21h4s0-.06,0-.1a4.93,4.93,0,0,1,.38-1.9H12.46a5.22,5.22,0,0,0-5.21,5.21A13.35,13.35,0,0,0,20.58,39.79h2A13.35,13.35,0,0,0,35.95,26.45,5.22,5.22,0,0,0,30.73,21.24Z"/><path class="cls-1" d="M11.72.91V2.1a3.19,3.19,0,0,1,.74-.1H30.73a3.16,3.16,0,0,1,.41,0V1H32a9.92,9.92,0,0,1,2.09.23A5.16,5.16,0,0,0,30.73,0H12.46a5.17,5.17,0,0,0-3.1,1A9.92,9.92,0,0,1,10.9.91Z"/><path class="cls-1" d="M33.95,18.74v7.71A11.35,11.35,0,0,1,22.61,37.79h-2A11.35,11.35,0,0,1,9.24,26.45v-8a4.89,4.89,0,0,1-2,.64v7.33A13.35,13.35,0,0,0,20.58,39.79h2A13.35,13.35,0,0,0,35.95,26.45V19.24A4.9,4.9,0,0,1,33.95,18.74Z"/></g></g></svg>