<svg xmlns="http://www.w3.org/2000/svg" viewBox="0 0 29.83 38"><defs><style>.cls-1{fill:#0079d4;}</style></defs><title>Datový zdroj 14</title><g id="Vrstva_2" data-name="Vrstva 2"><g id="Vrstva_1-2" data-name="Vrstva 1"><path class="cls-1" d="M29.83,38H0V0H29.83ZM2,36H27.83V2H2Z"/><rect class="cls-1" x="0.92" y="9.21" width="27.9" height="2"/><rect class="cls-1" x="5.3" y="18" width="19.15" height="2"/><rect class="cls-1" x="5.3" y="27.41" width="19.15" height="2"/><path class="cls-1" d="M23.41,7.38a1.89,1.89,0,1,1,1.89-1.89A1.89,1.89,0,0,1,23.41,7.38Zm0-2a.11.11,0,0,0-.11.11c0,.12.22.12.22,0A.11.11,0,0,0,23.41,5.38Z"/><path class="cls-1" d="M17.8,7.38a1.89,1.89,0,1,1,1.89-1.89A1.89,1.89,0,0,1,17.8,7.38Zm0-2a.11.11,0,0,0-.11.11c0,.13.23.12.23,0A.11.11,0,0,0,17.8,5.38Z"/></g></g></svg>