<svg xmlns="http://www.w3.org/2000/svg" viewBox="0 0 51.25 33"><defs><style>.cls-1{fill:#0079d4;}</style></defs><title>Datový zdroj 15</title><g id="Vrstva_2" data-name="Vrstva 2"><g id="Vrstva_1-2" data-name="Vrstva 1"><path class="cls-1" d="M9.3,17a7,7,0,1,1,7-7A7,7,0,0,1,9.3,17Zm0-12a5,5,0,1,0,5,5A5,5,0,0,0,9.3,5Z"/><path class="cls-1" d="M25.8,12.78H18.36a2.13,2.13,0,0,1-2.12-2.12V1.76H25.8v2H18.24v6.9a.12.12,0,0,0,.12.12H25.8Z"/><path class="cls-1" d="M6.27,33H5.68C3.18,32.91.51,31.12.2,27.32-.15,23.14-.26,19,1.76,10.16c2.06-9,5.61-9.77,6.78-10S12.43,0,13.42.71a1.79,1.79,0,0,1,.73.93A5.25,5.25,0,0,0,16,1.95h1.25v2H16A5.44,5.44,0,0,1,12.64,3a1.41,1.41,0,0,1-.4-.68l0,0A7.93,7.93,0,0,0,9,2.07c-2.34.54-4.12,3.41-5.29,8.54-2,8.52-1.84,12.53-1.52,16.55.23,2.75,2,3.78,3.56,3.84,2,.07,3.25,0,4.59-3.05A34.23,34.23,0,0,0,12,23.24c.52-1.82.75-2.65,1.5-2.94.38-.15,1.28-.29,7.56-.29H25.8v2H21c-4.47,0-6.06.08-6.63.14-.14.36-.34,1.06-.51,1.64a36.37,36.37,0,0,1-1.71,5C10.51,32.47,8.45,33,6.27,33Z"/><path class="cls-1" d="M41.95,17a7,7,0,1,1,7-7A7,7,0,0,1,41.95,17Zm0-12a5,5,0,1,0,5,5A5,5,0,0,0,41.95,5Z"/><path class="cls-1" d="M32.89,12.78H25.45v-2h7.44a.12.12,0,0,0,.12-.12V3.76H25.45v-2H35v8.9A2.13,2.13,0,0,1,32.89,12.78Z"/><path class="cls-1" d="M45,33c-2.17,0-4.24-.53-5.9-4.25a36.37,36.37,0,0,1-1.71-5c-.17-.59-.37-1.3-.51-1.65-.51,0-2.08-.13-6.63-.13H25.45V20h4.78c6.27,0,7.17.15,7.56.29.75.29,1,1.12,1.5,2.94a34.23,34.23,0,0,0,1.61,4.7c1.34,3,2.63,3.13,4.59,3.05,1.57-.05,3.33-1.09,3.56-3.84.33-4,.44-8-1.52-16.55-1.18-5.13-3-8-5.28-8.54A7.83,7.83,0,0,0,39,2.32h0a1.4,1.4,0,0,1-.39.68,5.44,5.44,0,0,1-3.35.94H34v-2h1.25a5,5,0,0,0,1.85-.32,1.79,1.79,0,0,1,.72-.92c1-.74,3.83-.83,4.87-.59s4.74,1.09,6.79,10c2,8.8,1.9,13,1.56,17.16-.31,3.8-3,5.59-5.49,5.67Z"/></g></g></svg>