<svg xmlns="http://www.w3.org/2000/svg" viewBox="0 0 43.1 43.1"><defs><style>.cls-1{fill:#0079d4;}</style></defs><title>Datový zdroj 17</title><g id="Vrstva_2" data-name="Vrstva 2"><g id="Vrstva_1-2" data-name="Vrstva 1"><path class="cls-1" d="M29.33,18.15A5.76,5.76,0,0,1,23.39,24h-5V31.3H16.91V12.24h6.48A5.76,5.76,0,0,1,29.33,18.15Zm-1.44,0a4.36,4.36,0,0,0-4.49-4.55h-5v9.07h5A4.36,4.36,0,0,0,27.88,18.15Z"/><path class="cls-1" d="M18.85,31.8H16.41V11.74h7a6.28,6.28,0,0,1,6.44,6.41,6.27,6.27,0,0,1-6.44,6.38H18.85Zm-1.44-1h.44V23.53h5.54a5.23,5.23,0,0,0,5.44-5.38,5.25,5.25,0,0,0-5.44-5.41h-6Zm6-7.63H17.85V13.1h5.54a4.86,4.86,0,0,1,5,5A4.84,4.84,0,0,1,23.39,23.17Zm-4.54-1h4.54a3.88,3.88,0,0,0,4-4,3.85,3.85,0,0,0-4-4H18.85Z"/><path class="cls-1" d="M21.55,43.1a21.55,21.55,0,0,1,0-43.1h0a21.55,21.55,0,0,1,0,43.1Zm0-41.1h0a19.55,19.55,0,0,0,0,39.1h0a19.55,19.55,0,0,0,0-39.1Z"/></g></g></svg>