<svg xmlns="http://www.w3.org/2000/svg" viewBox="0 0 61.98 44.36"><defs><style>.cls-1{fill:#0079d4;}.cls-2{fill:#fff;}</style></defs><title>Datový zdroj 18</title><g id="Vrstva_2" data-name="Vrstva 2"><g id="Vrstva_1-2" data-name="Vrstva 1"><path class="cls-1" d="M45.45,44.36A9.56,9.56,0,1,1,55,34.8,9.57,9.57,0,0,1,45.45,44.36Zm0-17.11A7.56,7.56,0,1,0,53,34.8,7.56,7.56,0,0,0,45.45,27.24Z"/><path class="cls-1" d="M16,44.36a9.56,9.56,0,1,1,9.56-9.56A9.57,9.57,0,0,1,16,44.36Zm0-17.11a7.56,7.56,0,1,0,7.56,7.56A7.56,7.56,0,0,0,16,27.24Z"/><polygon class="cls-1" points="44.48 35.04 40.13 17.22 46.51 15.71 46.98 17.66 42.55 18.71 46.42 34.56 44.48 35.04"/><path class="cls-1" d="M27.71,35.8H14.1l9.46-13.38,18.58-3.13.63,3.35ZM18,33.8h9L40.59,21.89l-.06-.3L24.72,24.25Z"/><line class="cls-2" x1="23.05" y1="18.82" x2="27.34" y2="34.8"/><rect class="cls-1" x="24.19" y="18.54" width="2" height="16.54" transform="translate(-6.09 7.45) rotate(-15.04)"/><rect class="cls-1" x="19.64" y="17.82" width="7.7" height="2"/><polygon class="cls-1" points="61.03 18.54 30.99 2.27 0.95 18.54 0 16.78 30.99 0 61.98 16.78 61.03 18.54"/></g></g></svg>