<svg xmlns="http://www.w3.org/2000/svg" viewBox="0 0 39.32 35.83"><defs><style>.cls-1{fill:#0079d4;}</style></defs><title>Datový zdroj 20</title><g id="Vrstva_2" data-name="Vrstva 2"><g id="Vrstva_1-2" data-name="Vrstva 1"><path class="cls-1" d="M28.75,35.83H21.19v-1c0-6.54,1.14-9.44,2.15-12a18.9,18.9,0,0,0,1.62-7,5.08,5.08,0,1,1,6.8,0,18.91,18.91,0,0,0,1.62,7c1,2.56,2.15,5.47,2.15,12v1Zm-5.55-2H33.52a25.24,25.24,0,0,0-2-10.27,21.18,21.18,0,0,1-1.77-8.17v-.53l.43-.31a3,3,0,0,0,1.28-2.49,3.08,3.08,0,0,0-6.16,0,3,3,0,0,0,1.28,2.49l.43.31v.53a21.17,21.17,0,0,1-1.78,8.18A25.26,25.26,0,0,0,23.2,33.83Z"/><path class="cls-1" d="M28.75,34.82H26.22l2.42.67a2.95,2.95,0,0,0,2.79-.68Z"/><path class="cls-1" d="M37.13,4.69,20.52.11a3,3,0,0,0-3.66,2.08L9.94,27.25A3,3,0,0,0,12,30.91l10.19,2.81c0-.73,0-1.41.09-2L12.55,29a1,1,0,0,1-.68-1.2L18.78,2.72A1,1,0,0,1,20,2L36.6,6.62a1,1,0,0,1,.68,1.2L32.8,24.08a23.85,23.85,0,0,1,1.08,3.59L39.21,8.36A3,3,0,0,0,37.13,4.69Z"/><path class="cls-1" d="M20.25,1.07l1.57.43A3,3,0,0,0,20.21,1H20Z"/><path class="cls-1" d="M16,31H3a1,1,0,0,1-1-1V4A1,1,0,0,1,3,3H17.66l.16-.57A2,2,0,0,1,19.43,1H3A3,3,0,0,0,0,4V30a3,3,0,0,0,3,3H20.21a3,3,0,0,0,1.52-.43Z"/></g></g></svg>