<svg xmlns="http://www.w3.org/2000/svg" viewBox="0 0 80 80"><defs><style>.cls-1{fill:#0079d4;}</style></defs><title>Datový zdroj 21</title><g id="Vrstva_2" data-name="Vrstva 2"><g id="Vrstva_1-2" data-name="Vrstva 1"><path class="cls-1" d="M40,80A40,40,0,1,1,80,40,40,40,0,0,1,40,80ZM40,2A38,38,0,1,0,78,40,38,38,0,0,0,40,2Z"/><path class="cls-1" d="M62.15,56.32a1,1,0,0,1-.26,0L58,55.23a13.91,13.91,0,0,0-7.28,0,15.92,15.92,0,0,1-8.33,0,13.9,13.9,0,0,0-7.28,0,15.9,15.9,0,0,1-8.33,0l-3.9-1.06a1,1,0,0,1,.52-1.93l3.9,1.06a13.9,13.9,0,0,0,7.28,0,15.91,15.91,0,0,1,8.32,0,13.9,13.9,0,0,0,7.28,0,15.92,15.92,0,0,1,8.33,0l3.9,1.06a1,1,0,0,1-.26,2Z"/><path class="cls-1" d="M49,48.44H47V44.25c0-2.79-3.34-5.05-7.44-5.05s-7.44,2.27-7.44,5.05v4.19h-2V44.25c0-3.89,4.23-7.05,9.44-7.05S49,40.36,49,44.25Z"/><path class="cls-1" d="M55.07,50.27a1,1,0,0,1-.26,0l-3.9-1.06a13.89,13.89,0,0,0-7.28,0l-.1,0a15.75,15.75,0,0,1-8.23,0,13.9,13.9,0,0,0-7.28,0,15.9,15.9,0,0,1-8.33,0l-3.9-1.06a1,1,0,1,1,.52-1.93l3.9,1.06a13.92,13.92,0,0,0,7.28,0,15.91,15.91,0,0,1,8.32,0,13.9,13.9,0,0,0,7.28,0l.1,0a15.77,15.77,0,0,1,8.22,0l3.9,1.06a1,1,0,0,1-.26,2Z"/><path class="cls-1" d="M39.56,39.19a7.05,7.05,0,1,1,7.05-7.05A7.06,7.06,0,0,1,39.56,39.19Zm0-12.11a5.05,5.05,0,1,0,5.05,5.05A5.06,5.06,0,0,0,39.56,27.09Z"/><path class="cls-1" d="M32,41.64a13.92,13.92,0,0,1-4.66-.44l-3.9-1.06a1,1,0,1,0-.52,1.93l3.9,1.06a15.86,15.86,0,0,0,4.4.55A4.78,4.78,0,0,1,32,41.64Z"/><path class="cls-1" d="M62.41,42.25l-3.9-1.06a15.91,15.91,0,0,0-8.33,0,13.88,13.88,0,0,1-3,.46,4.79,4.79,0,0,1,.77,2,15.9,15.9,0,0,0,2.75-.48,13.89,13.89,0,0,1,7.28,0l3.9,1.06a1,1,0,0,0,.26,0,1,1,0,0,0,.26-2Z"/></g></g></svg>