<svg xmlns="http://www.w3.org/2000/svg" viewBox="0 0 80 80"><defs><style>.cls-1{fill:#0079d4;}</style></defs><title>Datový zdroj 22</title><g id="Vrstva_2" data-name="Vrstva 2"><g id="Vrstva_1-2" data-name="Vrstva 1"><path class="cls-1" d="M40,80A40,40,0,1,1,80,40,40,40,0,0,1,40,80ZM40,2A38,38,0,1,0,78,40,38,38,0,0,0,40,2Z"/><path class="cls-1" d="M29.74,44.9a1,1,0,0,1-.85-1.52l5.25-8.61a9.64,9.64,0,0,1,8.18-4.6,7,7,0,0,1,6.86,5.47A4.43,4.43,0,0,1,47.7,40,4.17,4.17,0,0,1,43,40.3a3.59,3.59,0,0,1-1.1-4.88,1,1,0,1,1,1.67,1.1,1.62,1.62,0,0,0,.57,2.13,2.2,2.2,0,0,0,2.29-.19,2.42,2.42,0,0,0,.85-2.42,5,5,0,0,0-4.9-3.88,7.63,7.63,0,0,0-6.48,3.64L30.6,44.43A1,1,0,0,1,29.74,44.9Z"/><path class="cls-1" d="M34.07,37.81a1,1,0,0,1-.84-1.54l4-6.14a12.12,12.12,0,0,1,10.71-6.24,9.66,9.66,0,0,1,9.46,7.54,1,1,0,1,1-1.95.45,7.67,7.67,0,0,0-7.51-6,10.1,10.1,0,0,0-9,5.3l-4,6.17A1,1,0,0,1,34.07,37.81Z"/><path class="cls-1" d="M52.63,45.81a1,1,0,0,1-.26,0l-3.09-.84a10.78,10.78,0,0,0-5.65,0l-.1,0a12.65,12.65,0,0,1-6.6,0,10.79,10.79,0,0,0-5.65,0,12.79,12.79,0,0,1-6.7,0L21.5,44.1A1,1,0,1,1,22,42.17l3.08.84a10.81,10.81,0,0,0,5.65,0,12.8,12.8,0,0,1,6.7,0,10.78,10.78,0,0,0,5.65,0l.1,0a12.65,12.65,0,0,1,6.6,0l3.09.84a1,1,0,0,1-.26,2Z"/><path class="cls-1" d="M52.63,55.39a1,1,0,0,1-.26,0l-3.09-.84a10.78,10.78,0,0,0-5.65,0,12.81,12.81,0,0,1-6.7,0,10.8,10.8,0,0,0-5.65,0,12.79,12.79,0,0,1-6.7,0l-3.08-.84A1,1,0,0,1,22,51.75l3.08.84a10.79,10.79,0,0,0,5.65,0,12.8,12.8,0,0,1,6.7,0,10.78,10.78,0,0,0,5.65,0,12.8,12.8,0,0,1,6.7,0l3.09.84a1,1,0,0,1-.26,2Z"/><path class="cls-1" d="M58.33,50.6a1,1,0,0,1-.26,0L55,49.72a10.78,10.78,0,0,0-5.65,0,12.82,12.82,0,0,1-6.7,0,10.8,10.8,0,0,0-5.65,0,12.78,12.78,0,0,1-6.7,0l-3.08-.84A1,1,0,1,1,27.73,47l3.08.84a10.8,10.8,0,0,0,5.65,0,12.8,12.8,0,0,1,6.7,0,10.79,10.79,0,0,0,5.65,0,12.8,12.8,0,0,1,6.7,0l3.09.84a1,1,0,0,1-.26,2Z"/></g></g></svg>