<svg xmlns="http://www.w3.org/2000/svg" viewBox="0 0 80 80"><defs><style>.cls-1{fill:#0079d4;}</style></defs><title>Datový zdroj 23</title><g id="Vrstva_2" data-name="Vrstva 2"><g id="Vrstva_1-2" data-name="Vrstva 1"><path class="cls-1" d="M40,80A40,40,0,1,1,80,40,40,40,0,0,1,40,80ZM40,2A38,38,0,1,0,78,40,38,38,0,0,0,40,2Z"/><path class="cls-1" d="M52.8,37.38H26.49V25.46H52.8l7.27,6Zm-24.31-2h23.6l4.83-4-4.83-4H28.49Z"/><path class="cls-1" d="M54.89,51.11H28.58l-7.27-6,7.27-6H54.89Zm-25.59-2H52.89V41.19H29.3l-4.83,4Z"/><polygon class="cls-1" points="38.17 26.46 38.17 22 41.83 22 41.83 26.46 43.83 26.46 43.83 20 36.17 20 36.17 26.46 38.17 26.46"/><rect class="cls-1" x="36.17" y="36.38" width="2" height="3.81"/><rect class="cls-1" x="36.17" y="50.11" width="2" height="12.32"/><rect class="cls-1" x="41.83" y="36.38" width="2" height="3.81"/><rect class="cls-1" x="41.83" y="50.11" width="2" height="12.32"/></g></g></svg>