<svg xmlns="http://www.w3.org/2000/svg" viewBox="0 0 80 80"><defs><style>.cls-1{fill:#0079d4;}.cls-2{fill:#fff;}</style></defs><title>Datový zdroj 24</title><g id="Vrstva_2" data-name="Vrstva 2"><g id="Vrstva_1-2" data-name="Vrstva 1"><path class="cls-1" d="M40,80A40,40,0,1,1,80,40,40,40,0,0,1,40,80ZM40,2A38,38,0,1,0,78,40,38,38,0,0,0,40,2Z"/><path class="cls-1" d="M54.59,54.76a9.91,9.91,0,1,1,9.91-9.91A9.92,9.92,0,0,1,54.59,54.76Zm0-17.81a7.91,7.91,0,1,0,7.91,7.91A7.92,7.92,0,0,0,54.59,37Z"/><path class="cls-1" d="M24,54.76a9.91,9.91,0,1,1,9.91-9.91A9.92,9.92,0,0,1,24,54.76ZM24,37a7.91,7.91,0,1,0,7.91,7.91A7.92,7.92,0,0,0,24,37Z"/><polygon class="cls-1" points="53.62 45.09 49.1 26.59 55.71 25.03 56.17 26.97 51.52 28.07 55.56 44.62 53.62 45.09"/><path class="cls-1" d="M36.11,45.86H22L31.83,32l19.28-3.25.64,3.43Zm-10.21-2h9.46L49.58,31.43l-.07-.37L33,33.84Z"/><line class="cls-2" x1="31.27" y1="28.23" x2="35.74" y2="44.86"/><rect class="cls-1" x="32.5" y="27.93" width="2" height="17.22" transform="translate(-8.33 9.94) rotate(-15.03)"/><rect class="cls-1" x="27.72" y="27.23" width="8.01" height="2"/></g></g></svg>