<svg xmlns="http://www.w3.org/2000/svg" viewBox="0 0 80 80"><defs><style>.cls-1{fill:#0079d4;}</style></defs><title>Datový zdroj 25</title><g id="Vrstva_2" data-name="Vrstva 2"><g id="Vrstva_1-2" data-name="Vrstva 1"><path class="cls-1" d="M40,80A40,40,0,1,1,80,40,40,40,0,0,1,40,80ZM40,2A38,38,0,1,0,78,40,38,38,0,0,0,40,2Z"/><path class="cls-1" d="M53.07,54.57h0l-20.53-.85a3.53,3.53,0,0,1-3.29-2l-4.72-8.82a13.81,13.81,0,0,1,7.62-18,17,17,0,0,1,22.15,9.4,32.1,32.1,0,0,1,2.1,9.9l.32,6.39a3.64,3.64,0,0,1-3.59,3.93ZM32.51,51.73l20.59.85A1.61,1.61,0,0,0,54.28,52a1.64,1.64,0,0,0,.42-1.25l-.33-6.43a30.07,30.07,0,0,0-2-9.27,15,15,0,0,0-19.54-8.28,11.81,11.81,0,0,0-6.54,15.3L31,50.82A1.59,1.59,0,0,0,32.51,51.73Z"/><path class="cls-1" d="M55.4,46.59l-14.74-.46a5.55,5.55,0,0,1-.39-11.08l13-1.32.2,2L40.48,37a3.55,3.55,0,0,0,.25,7.09l14.74.46Z"/></g></g></svg>