<svg xmlns="http://www.w3.org/2000/svg" viewBox="0 0 80 80"><defs><style>.cls-1{fill:#0079d4;}</style></defs><title>Datový zdroj 26</title><g id="Vrstva_2" data-name="Vrstva 2"><g id="Vrstva_1-2" data-name="Vrstva 1"><path class="cls-1" d="M40,80A40,40,0,1,1,80,40,40,40,0,0,1,40,80ZM40,2A38,38,0,1,0,78,40,38,38,0,0,0,40,2Z"/><path class="cls-1" d="M48.77,60.58H30.7l9-7.92ZM36,58.58h7.44l-3.72-3.26Z"/><path class="cls-1" d="M39.73,55.24,37.8,53.81c-3.11-2.3-6.06-5-6.63-9.32-.54-4,1-8.09,4.39-11.42l.14-.13,4-1.73,4,1.73.13.13c3.37,3.33,4.93,7.38,4.39,11.42-.57,4.3-3.53,7-6.63,9.32Zm-2.9-20.61c-2.82,2.85-4.13,6.25-3.68,9.6.39,2.92,2,5.15,5.84,8l.74.55.74-.55c3.81-2.82,5.45-5.06,5.84-8,.44-3.35-.86-6.75-3.68-9.6l-2.9-1.24Z"/><rect class="cls-1" x="38.73" y="14.25" width="2" height="18.05"/><path class="cls-1" d="M41.5,41a4,4,0,1,1,4-4A4,4,0,0,1,41.5,41Zm0-6a2,2,0,1,0,2,2A2,2,0,0,0,41.5,35Z"/></g></g></svg>