<svg xmlns="http://www.w3.org/2000/svg" viewBox="0 0 1413.27 16"><defs><style>.cls-1{fill:#fff;}</style></defs><title>Datový zdroj 27</title><g id="Vrstva_2" data-name="Vrstva 2"><g id="Vrstva_1-2" data-name="Vrstva 1"><rect class="cls-1" x="2.34" y="2.34" width="11.31" height="11.31" transform="translate(-3.31 8) rotate(-45)"/><rect class="cls-1" x="18.37" y="2.34" width="11.31" height="11.31" transform="translate(1.38 19.33) rotate(-45)"/><rect class="cls-1" x="34.4" y="2.34" width="11.31" height="11.31" transform="translate(6.08 30.67) rotate(-45)"/><rect class="cls-1" x="50.43" y="2.34" width="11.31" height="11.31" transform="translate(10.77 42) rotate(-45)"/><rect class="cls-1" x="66.46" y="2.34" width="11.31" height="11.31" transform="translate(15.46 53.33) rotate(-45)"/><rect class="cls-1" x="82.48" y="2.34" width="11.31" height="11.31" transform="translate(20.16 64.67) rotate(-45)"/><rect class="cls-1" x="98.51" y="2.34" width="11.31" height="11.31" transform="translate(24.85 76) rotate(-45)"/><rect class="cls-1" x="114.54" y="2.34" width="11.31" height="11.31" transform="translate(29.55 87.34) rotate(-45)"/><rect class="cls-1" x="130.57" y="2.34" width="11.31" height="11.31" transform="translate(34.24 98.67) rotate(-45)"/><rect class="cls-1" x="146.6" y="2.34" width="11.31" height="11.31" transform="translate(38.94 110) rotate(-45)"/><rect class="cls-1" x="162.63" y="2.34" width="11.31" height="11.31" transform="translate(43.63 121.34) rotate(-45)"/><rect class="cls-1" x="178.65" y="2.34" width="11.31" height="11.31" transform="translate(48.33 132.67) rotate(-45)"/><rect class="cls-1" x="194.68" y="2.34" width="11.31" height="11.31" transform="translate(53.02 144) rotate(-45)"/><rect class="cls-1" x="210.71" y="2.34" width="11.31" height="11.31" transform="translate(57.72 155.34) rotate(-45)"/><rect class="cls-1" x="226.74" y="2.34" width="11.31" height="11.31" transform="translate(62.41 166.67) rotate(-45)"/><rect class="cls-1" x="242.77" y="2.34" width="11.31" height="11.31" transform="translate(67.1 178.01) rotate(-45)"/><rect class="cls-1" x="258.79" y="2.34" width="11.31" height="11.31" transform="translate(71.8 189.34) rotate(-45)"/><rect class="cls-1" x="274.82" y="2.34" width="11.31" height="11.31" transform="translate(76.49 200.67) rotate(-45)"/><rect class="cls-1" x="290.85" y="2.34" width="11.31" height="11.31" transform="translate(81.19 212.01) rotate(-45)"/><rect class="cls-1" x="306.88" y="2.34" width="11.31" height="11.31" transform="translate(85.88 223.34) rotate(-45)"/><rect class="cls-1" x="322.91" y="2.34" width="11.31" height="11.31" transform="translate(90.58 234.67) rotate(-45)"/><rect class="cls-1" x="338.94" y="2.34" width="11.31" height="11.31" transform="translate(95.27 246.01) rotate(-45)"/><rect class="cls-1" x="354.96" y="2.34" width="11.31" height="11.31" transform="translate(99.97 257.34) rotate(-45)"/><rect class="cls-1" x="370.99" y="2.34" width="11.31" height="11.31" transform="translate(104.66 268.67) rotate(-45)"/><rect class="cls-1" x="387.02" y="2.34" width="11.31" height="11.31" transform="translate(109.36 280.01) rotate(-45)"/><rect class="cls-1" x="403.05" y="2.34" width="11.31" height="11.31" transform="translate(114.05 291.34) rotate(-45)"/><rect class="cls-1" x="419.08" y="2.34" width="11.31" height="11.31" transform="translate(118.74 302.68) rotate(-45)"/><rect class="cls-1" x="435.11" y="2.34" width="11.31" height="11.31" transform="translate(123.44 314.01) rotate(-45)"/><rect class="cls-1" x="451.13" y="2.34" width="11.31" height="11.31" transform="translate(128.13 325.34) rotate(-45)"/><rect class="cls-1" x="467.16" y="2.34" width="11.31" height="11.31" transform="translate(132.83 336.68) rotate(-45)"/><rect class="cls-1" x="483.19" y="2.34" width="11.31" height="11.31" transform="translate(137.52 348.01) rotate(-45)"/><rect class="cls-1" x="499.22" y="2.34" width="11.31" height="11.31" transform="translate(142.22 359.34) rotate(-45)"/><rect class="cls-1" x="515.25" y="2.34" width="11.31" height="11.31" transform="translate(146.91 370.68) rotate(-45)"/><rect class="cls-1" x="531.27" y="2.34" width="11.31" height="11.31" transform="translate(151.61 382.01) rotate(-45)"/><rect class="cls-1" x="547.3" y="2.34" width="11.31" height="11.31" transform="translate(156.3 393.35) rotate(-45)"/><rect class="cls-1" x="564.75" y="2.34" width="11.31" height="11.31" transform="translate(161.41 405.68) rotate(-45)"/><rect class="cls-1" x="580.77" y="2.34" width="11.31" height="11.31" transform="translate(166.1 417.01) rotate(-45)"/><rect class="cls-1" x="596.8" y="2.34" width="11.31" height="11.31" transform="translate(170.8 428.35) rotate(-45)"/><rect class="cls-1" x="612.83" y="2.34" width="11.31" height="11.31" transform="translate(175.49 439.68) rotate(-45)"/><rect class="cls-1" x="628.86" y="2.34" width="11.31" height="11.31" transform="translate(180.19 451.01) rotate(-45)"/><rect class="cls-1" x="644.89" y="2.34" width="11.31" height="11.31" transform="translate(184.88 462.35) rotate(-45)"/><rect class="cls-1" x="660.91" y="2.34" width="11.31" height="11.31" transform="translate(189.58 473.68) rotate(-45)"/><rect class="cls-1" x="676.94" y="2.34" width="11.31" height="11.31" transform="translate(194.27 485.01) rotate(-45)"/><rect class="cls-1" x="692.97" y="2.34" width="11.31" height="11.31" transform="translate(198.97 496.35) rotate(-45)"/><rect class="cls-1" x="708.99" y="2.34" width="11.31" height="11.31" transform="translate(203.66 507.67) rotate(-45)"/><rect class="cls-1" x="725.02" y="2.34" width="11.31" height="11.31" transform="translate(208.35 519.01) rotate(-45)"/><rect class="cls-1" x="741.05" y="2.34" width="11.31" height="11.31" transform="translate(213.05 530.34) rotate(-45)"/><rect class="cls-1" x="757.07" y="2.34" width="11.31" height="11.31" transform="translate(217.74 541.68) rotate(-45)"/><rect class="cls-1" x="773.1" y="2.34" width="11.31" height="11.31" transform="translate(222.44 553.01) rotate(-45)"/><rect class="cls-1" x="789.13" y="2.34" width="11.31" height="11.31" transform="translate(227.13 564.34) rotate(-45)"/><rect class="cls-1" x="805.16" y="2.34" width="11.31" height="11.31" transform="translate(231.83 575.68) rotate(-45)"/><rect class="cls-1" x="821.19" y="2.34" width="11.31" height="11.31" transform="translate(236.52 587.01) rotate(-45)"/><rect class="cls-1" x="837.22" y="2.34" width="11.31" height="11.31" transform="translate(241.21 598.34) rotate(-45)"/><rect class="cls-1" x="853.24" y="2.34" width="11.31" height="11.31" transform="translate(245.91 609.68) rotate(-45)"/><rect class="cls-1" x="869.27" y="2.34" width="11.31" height="11.31" transform="translate(250.6 621.01) rotate(-45)"/><rect class="cls-1" x="885.3" y="2.34" width="11.31" height="11.31" transform="translate(255.3 632.35) rotate(-45)"/><rect class="cls-1" x="901.33" y="2.34" width="11.31" height="11.31" transform="translate(259.99 643.68) rotate(-45)"/><rect class="cls-1" x="917.36" y="2.34" width="11.31" height="11.31" transform="translate(264.69 655.01) rotate(-45)"/><rect class="cls-1" x="933.38" y="2.34" width="11.31" height="11.31" transform="translate(269.38 666.35) rotate(-45)"/><rect class="cls-1" x="949.41" y="2.34" width="11.31" height="11.31" transform="translate(274.08 677.68) rotate(-45)"/><rect class="cls-1" x="965.44" y="2.34" width="11.31" height="11.31" transform="translate(278.77 689.01) rotate(-45)"/><rect class="cls-1" x="981.47" y="2.34" width="11.31" height="11.31" transform="translate(283.47 700.35) rotate(-45)"/><rect class="cls-1" x="997.5" y="2.34" width="11.31" height="11.31" transform="translate(288.16 711.68) rotate(-45)"/><rect class="cls-1" x="1013.53" y="2.34" width="11.31" height="11.31" transform="translate(292.85 723.01) rotate(-45)"/><rect class="cls-1" x="1029.55" y="2.34" width="11.31" height="11.31" transform="translate(297.55 734.35) rotate(-45)"/><rect class="cls-1" x="1045.58" y="2.34" width="11.31" height="11.31" transform="translate(302.24 745.68) rotate(-45)"/><rect class="cls-1" x="1061.61" y="2.34" width="11.31" height="11.31" transform="translate(306.94 757.02) rotate(-45)"/><rect class="cls-1" x="1077.64" y="2.34" width="11.31" height="11.31" transform="translate(311.63 768.35) rotate(-45)"/><rect class="cls-1" x="1093.67" y="2.34" width="11.31" height="11.31" transform="translate(316.33 779.68) rotate(-45)"/><rect class="cls-1" x="1109.7" y="2.34" width="11.31" height="11.31" transform="translate(321.02 791.02) rotate(-45)"/><rect class="cls-1" x="1125.72" y="2.34" width="11.31" height="11.31" transform="translate(325.72 802.35) rotate(-45)"/><rect class="cls-1" x="1141.75" y="2.34" width="11.31" height="11.31" transform="translate(330.41 813.68) rotate(-45)"/><rect class="cls-1" x="1157.78" y="2.34" width="11.31" height="11.31" transform="translate(335.11 825.02) rotate(-45)"/><rect class="cls-1" x="1173.81" y="2.34" width="11.31" height="11.31" transform="translate(339.8 836.35) rotate(-45)"/><rect class="cls-1" x="1189.84" y="2.34" width="11.31" height="11.31" transform="translate(344.49 847.68) rotate(-45)"/><rect class="cls-1" x="1205.86" y="2.34" width="11.31" height="11.31" transform="translate(349.19 859.02) rotate(-45)"/><rect class="cls-1" x="1221.89" y="2.34" width="11.31" height="11.31" transform="translate(353.88 870.35) rotate(-45)"/><rect class="cls-1" x="1237.92" y="2.34" width="11.31" height="11.31" transform="translate(358.58 881.69) rotate(-45)"/><rect class="cls-1" x="1253.95" y="2.34" width="11.31" height="11.31" transform="translate(363.27 893.02) rotate(-45)"/><rect class="cls-1" x="1271.39" y="2.34" width="11.31" height="11.31" transform="translate(368.38 905.35) rotate(-45)"/><rect class="cls-1" x="1287.42" y="2.34" width="11.31" height="11.31" transform="translate(373.08 916.69) rotate(-45)"/><rect class="cls-1" x="1303.45" y="2.34" width="11.31" height="11.31" transform="translate(377.77 928.02) rotate(-45)"/><rect class="cls-1" x="1319.48" y="2.34" width="11.31" height="11.31" transform="translate(382.47 939.35) rotate(-45)"/><rect class="cls-1" x="1335.5" y="2.34" width="11.31" height="11.31" transform="translate(387.16 950.69) rotate(-45)"/><rect class="cls-1" x="1351.53" y="2.34" width="11.31" height="11.31" transform="translate(391.85 962.02) rotate(-45)"/><rect class="cls-1" x="1367.56" y="2.34" width="11.31" height="11.31" transform="translate(396.55 973.36) rotate(-45)"/><rect class="cls-1" x="1383.59" y="2.34" width="11.31" height="11.31" transform="translate(401.24 984.69) rotate(-45)"/><rect class="cls-1" x="1399.62" y="2.34" width="11.31" height="11.31" transform="translate(405.94 996.02) rotate(-45)"/></g></g></svg>