<svg xmlns="http://www.w3.org/2000/svg" viewBox="0 0 38.24 39.65"><defs><style>.cls-1{fill:#fff;}.cls-2{fill:#0079d4;}</style></defs><title>Datový zdroj 4</title><g id="Vrstva_2" data-name="Vrstva 2"><g id="Vrstva_1-2" data-name="Vrstva 1"><line class="cls-1" x1="19.39" x2="19.39" y2="39.36"/><rect class="cls-2" x="18.39" width="2" height="39.36"/><polygon class="cls-2" points="19.39 7.21 13.83 1.65 15.25 0.24 19.39 4.39 23.45 0.33 24.86 1.74 19.39 7.21"/><polygon class="cls-2" points="23.45 39.65 19.3 35.5 15.25 39.56 13.83 38.15 19.3 32.68 24.86 38.24 23.45 39.65"/><line class="cls-1" x1="36.41" y1="9.88" x2="2.33" y2="29.56"/><rect class="cls-2" x="-0.31" y="18.72" width="39.36" height="2" transform="translate(-7.26 12.32) rotate(-29.99)"/><polygon class="cls-2" points="37.64 15.49 30.17 13.49 32.2 5.89 34.13 6.41 32.62 12.07 38.16 13.56 37.64 15.49"/><polygon class="cls-2" points="6.04 33.74 4.1 33.22 5.62 27.55 0.08 26.07 0.6 24.14 8.07 26.14 6.04 33.74"/><line class="cls-1" x1="36.37" y1="29.56" x2="2.28" y2="9.88"/><rect class="cls-2" x="18.33" y="0.04" width="2" height="39.36" transform="translate(-7.41 26.6) rotate(-60)"/><polygon class="cls-2" points="32.12 33.43 30.12 25.95 37.72 23.92 38.24 25.85 32.57 27.37 34.05 32.91 32.12 33.43"/><polygon class="cls-2" points="0.52 15.18 0 13.25 5.67 11.73 4.18 6.19 6.11 5.67 8.12 13.14 0.52 15.18"/></g></g></svg>