<svg xmlns="http://www.w3.org/2000/svg" viewBox="0 0 199.35 21.39"><defs><style>.cls-1{fill:#191919;}</style></defs><title>Datový zdroj 40</title><g id="Vrstva_2" data-name="Vrstva 2"><g id="Vrstva_1-2" data-name="Vrstva 1"><path class="cls-1" d="M25.46,14.26H23.24V21H18.57V.53h8.18a7,7,0,0,1,7,7A6.74,6.74,0,0,1,30,13.47L34.35,21h-5Zm-2.22-4.09h3.51a2.48,2.48,0,0,0,2.34-2.63,2.48,2.48,0,0,0-2.34-2.63H23.24Z"/><path class="cls-1" d="M49.39,16.48V21H36.54V.53H49.25V5h-8V8.42h7.3v4.44h-7.3v3.62Z"/><path class="cls-1" d="M65.76,5H60.5V21H55.82V5H50.56V.53h15.2Z"/><path class="cls-1" d="M74.7,14.26H72.48V21H67.8V.53H76a7,7,0,0,1,7,7,6.74,6.74,0,0,1-3.77,5.93L83.58,21h-5Zm-2.22-4.09H76a2.48,2.48,0,0,0,2.34-2.63A2.48,2.48,0,0,0,76,4.91H72.48Z"/><path class="cls-1" d="M84.6,10.76a10.64,10.64,0,1,1,21.27,0,10.64,10.64,0,1,1-21.27,0Zm16.6,0a6,6,0,1,0-11.92,0,6,6,0,1,0,11.92,0Z"/><path class="cls-1" d="M107.63,10.76A10.37,10.37,0,0,1,118.26.12,10.2,10.2,0,0,1,127,4.85l-4,2.34a5.29,5.29,0,0,0-4.73-2.51c-3.62,0-6,2.43-6,6.08s2.34,6.08,6,6.08A5.26,5.26,0,0,0,123,14.32l4,2.34a10.13,10.13,0,0,1-8.77,4.73A10.37,10.37,0,0,1,107.63,10.76Z"/><path class="cls-1" d="M145,.53V21h-4.67V12.86H133.9V21h-4.68V.53h4.68V8.36h6.43V.53Z"/><path class="cls-1" d="M160.48,17.77h-7.6l-1,3.21h-5.11l7-20.45h6l7,20.45h-5.11Zm-1.4-4.38-2.4-7.51-2.4,7.51Z"/><path class="cls-1" d="M180.65,5h-5.26V21h-4.68V5h-5.26V.53h15.2Z"/><path class="cls-1" d="M192.48,13.12V21h-4.67V13.12L180.94.53h5.32l3.89,7.89L194,.53h5.32Z"/><rect class="cls-1" width="3" height="20.98"/></g></g></svg>