<svg xmlns="http://www.w3.org/2000/svg" viewBox="0 0 48.67 39.4"><defs><style>.cls-1{fill:#0079d4;}</style></defs><title>Datový zdroj 5</title><g id="Vrstva_2" data-name="Vrstva 2"><g id="Vrstva_1-2" data-name="Vrstva 1"><path class="cls-1" d="M39,39.4H28.86a4,4,0,0,1-4-4V18.7H43.08V35.36A4,4,0,0,1,39,39.4ZM26.83,20.7V35.36a2,2,0,0,0,2,2H39a2,2,0,0,0,2-2V20.7Z"/><path class="cls-1" d="M45.28,34.1h-3.2v-2h3.2a1.39,1.39,0,0,0,1.39-1.39V25.64H42.08v-2h6.59v7.07A3.39,3.39,0,0,1,45.28,34.1Z"/><path class="cls-1" d="M26,36.23A17.69,17.69,0,1,1,37.4,19.7h2A19.72,19.72,0,1,0,27.21,37.91,3,3,0,0,1,26,36.23Z"/><path class="cls-1" d="M25.83,28.33a10.58,10.58,0,1,1,4.47-8.63h2a12.62,12.62,0,1,0-6.47,11Z"/></g></g></svg>