<svg xmlns="http://www.w3.org/2000/svg" viewBox="0 0 47 40.27"><defs><style>.cls-1{fill:#0079d4;}</style></defs><title>Datový zdroj 6</title><g id="Vrstva_2" data-name="Vrstva 2"><g id="Vrstva_1-2" data-name="Vrstva 1"><rect class="cls-1" y="38.27" width="47" height="2"/><path class="cls-1" d="M35,34.27H13a4,4,0,0,1-4-4v-14H39v14A4,4,0,0,1,35,34.27Zm-24-16v12a2,2,0,0,0,2,2H35a2,2,0,0,0,2-2v-12Z"/><path class="cls-1" d="M19,12.53,17,12A22,22,0,0,0,17,.53L19,0A24,24,0,0,1,19,12.53Z"/><path class="cls-1" d="M25,12.53,23,12A22,22,0,0,0,23,.53L25,0A24,24,0,0,1,25,12.53Z"/><path class="cls-1" d="M31,12.53,29,12A22,22,0,0,0,29,.53L31,0A24,24,0,0,1,31,12.53Z"/><rect class="cls-1" x="38" y="20.27" width="5" height="2"/><rect class="cls-1" x="5" y="20.27" width="5" height="2"/></g></g></svg>