<svg xmlns="http://www.w3.org/2000/svg" viewBox="0 0 39.51 39.28"><defs><style>.cls-1{fill:#0079d4;}</style></defs><title>Datový zdroj 8</title><g id="Vrstva_2" data-name="Vrstva 2"><g id="Vrstva_1-2" data-name="Vrstva 1"><path class="cls-1" d="M37,16.85A17.6,17.6,0,1,1,23.18,2.36,10.69,10.69,0,0,1,24.28.58,19.64,19.64,0,1,0,38.9,15.81,10.66,10.66,0,0,1,37,16.85Z"/><path class="cls-1" d="M32.79,4a3,3,0,0,1,.67.08L33,.08,31,.32l.48,4A3,3,0,0,1,32.79,4Z"/><path class="cls-1" d="M30.53,5l-3.7-1.58-.79,1.84,3.71,1.58A3,3,0,0,1,30.53,5Z"/><path class="cls-1" d="M35.68,6.14l3.23-2.42-1.2-1.6L34.5,4.52A3,3,0,0,1,35.68,6.14Z"/><path class="cls-1" d="M35.81,7.26A3,3,0,0,1,35,9.09l3.71,1.58.79-1.84Z"/><path class="cls-1" d="M29.9,8l-3.22,2.41,1.2,1.6L31.1,9.57A3,3,0,0,1,29.9,8Z"/><path class="cls-1" d="M32.79,10.08a3.05,3.05,0,0,1-.63-.07l.48,4,2-.24-.48-4A3,3,0,0,1,32.79,10.08Z"/><path class="cls-1" d="M29.93,17.33a10.61,10.61,0,1,1-7.55-7.88,10.7,10.7,0,0,1-.27-2.13A12.68,12.68,0,1,0,32,17.69,10.65,10.65,0,0,1,29.93,17.33Z"/></g></g></svg>