<svg xmlns="http://www.w3.org/2000/svg" xmlns:xlink="http://www.w3.org/1999/xlink" viewBox="0 0 32.47 18.94"><defs><style>.cls-1{fill:none;}.cls-2{clip-path:url(#clip-path);}.cls-3{clip-path:url(#clip-path-2);}.cls-4{fill:#fff;}.cls-5{fill:#bd0034;}.cls-6{fill:#1a237b;}</style><clipPath id="clip-path" transform="translate(0 0)"><circle class="cls-1" cx="16.42" cy="9.47" r="9.47"/></clipPath><clipPath id="clip-path-2" transform="translate(0 0)"><rect class="cls-1" width="32.47" height="18.94"/></clipPath></defs><title>Datový zdroj 37</title><g id="Vrstva_2" data-name="Vrstva 2"><g id="Vrstva_1-2" data-name="Vrstva 1"><g class="cls-2"><g class="cls-3"><rect class="cls-4" width="32.47" height="18.94"/><polygon class="cls-5" points="21.75 6.85 32.47 0.84 32.47 0 31.73 0 19.5 6.85 21.75 6.85"/><polygon class="cls-5" points="21.24 12.48 32.47 18.76 32.47 17.51 23.48 12.48 21.24 12.48"/><polygon class="cls-5" points="0 1.44 9.61 6.85 11.86 6.85 0 0.18 0 1.44"/><polygon class="cls-5" points="11.35 12.48 0 18.83 0 18.94 2.05 18.94 13.6 12.48 11.35 12.48"/><polygon class="cls-6" points="30.25 0 18.88 0 18.88 6.37 30.25 0"/><polygon class="cls-6" points="13.86 0 2.54 0 13.86 6.37 13.86 0"/><polygon class="cls-6" points="32.47 6.85 32.47 2.5 24.76 6.85 32.47 6.85"/><polygon class="cls-6" points="32.47 16.77 32.47 12.48 24.76 12.48 32.47 16.77"/><polygon class="cls-6" points="3.18 18.94 13.86 18.94 13.86 12.96 3.18 18.94"/><polygon class="cls-6" points="18.88 18.94 29.6 18.94 18.88 12.96 18.88 18.94"/><polygon class="cls-6" points="0 12.48 0 16.97 7.98 12.48 0 12.48"/><polygon class="cls-6" points="0 6.85 7.98 6.85 0 2.35 0 6.85"/><polygon class="cls-5" points="14.87 0 14.87 7.97 0 7.97 0 11.35 14.87 11.35 14.87 18.94 17.88 18.94 17.88 11.35 32.47 11.35 32.47 7.97 17.88 7.97 17.88 0 14.87 0"/></g></g></g></g></svg>